<mxfile host="app.diagrams.net" modified="2024-05-21T06:37:19.782Z" agent="Mozilla/5.0 (Macintosh; Intel Mac OS X 10_15_7) AppleWebKit/605.1.15 (KHTML, like Gecko) Version/17.5 Safari/605.1.15" etag="vaIpXxX5UcLT73xIIKBI" version="24.4.4" type="github">
  <diagram name="Page-1" id="bfe91b75-5d2c-26a0-9c1d-138518896778">
    <mxGraphModel dx="2603" dy="2478" grid="1" gridSize="10" guides="1" tooltips="1" connect="1" arrows="1" fold="1" page="1" pageScale="1" pageWidth="1100" pageHeight="850" background="none" math="0" shadow="0">
      <root>
        <mxCell id="0" />
        <mxCell id="1" parent="0" />
        <mxCell id="LJwqWdsHmtlXlG4Iy3JH-2" value="" style="rounded=1;whiteSpace=wrap;html=1;" vertex="1" parent="1">
          <mxGeometry x="110" y="-640" width="1740" height="1260" as="geometry" />
        </mxCell>
        <mxCell id="LJwqWdsHmtlXlG4Iy3JH-1" value="" style="group" vertex="1" connectable="0" parent="1">
          <mxGeometry x="212" y="-522" width="1529" height="1010" as="geometry" />
        </mxCell>
        <mxCell id="x6pVL7PDZadzQxcIjXK9-1" value="" style="rounded=1;whiteSpace=wrap;html=1;fillColor=#F2F6FC;strokeColor=#6c8ebf;" parent="LJwqWdsHmtlXlG4Iy3JH-1" vertex="1">
          <mxGeometry width="900" height="1010" as="geometry" />
        </mxCell>
        <mxCell id="EgRt5MOaTffVcbJhi47y-1" value="&lt;font size=&quot;1&quot;&gt;&lt;b style=&quot;font-size: 31px;&quot;&gt;Yandex Cloud&lt;/b&gt;&lt;/font&gt;" style="text;html=1;align=center;verticalAlign=middle;whiteSpace=wrap;rounded=0;fontSize=16;" parent="LJwqWdsHmtlXlG4Iy3JH-1" vertex="1">
          <mxGeometry x="494" y="40" width="290" height="30" as="geometry" />
        </mxCell>
        <mxCell id="EgRt5MOaTffVcbJhi47y-30" value="" style="group" parent="LJwqWdsHmtlXlG4Iy3JH-1" vertex="1" connectable="0">
          <mxGeometry x="494" y="350" width="405" height="275" as="geometry" />
        </mxCell>
        <mxCell id="EgRt5MOaTffVcbJhi47y-13" value="" style="rounded=1;whiteSpace=wrap;html=1;" parent="EgRt5MOaTffVcbJhi47y-30" vertex="1">
          <mxGeometry x="40" width="270" height="275" as="geometry" />
        </mxCell>
        <mxCell id="EgRt5MOaTffVcbJhi47y-14" value="" style="rounded=1;whiteSpace=wrap;html=1;fillColor=#ffe6cc;strokeColor=#d79b00;" parent="EgRt5MOaTffVcbJhi47y-30" vertex="1">
          <mxGeometry x="50" y="45" width="140" height="130" as="geometry" />
        </mxCell>
        <mxCell id="EgRt5MOaTffVcbJhi47y-15" value="node-exporter" style="rounded=1;whiteSpace=wrap;html=1;" parent="EgRt5MOaTffVcbJhi47y-30" vertex="1">
          <mxGeometry x="60" y="85" width="60" height="60" as="geometry" />
        </mxCell>
        <mxCell id="EgRt5MOaTffVcbJhi47y-16" value="openvpn-exporter" style="rounded=1;whiteSpace=wrap;html=1;" parent="EgRt5MOaTffVcbJhi47y-30" vertex="1">
          <mxGeometry x="123" y="86" width="60" height="60" as="geometry" />
        </mxCell>
        <mxCell id="EgRt5MOaTffVcbJhi47y-18" value="monitoring" style="text;html=1;align=center;verticalAlign=middle;whiteSpace=wrap;rounded=0;fontSize=16;" parent="EgRt5MOaTffVcbJhi47y-30" vertex="1">
          <mxGeometry x="85.5" y="45" width="60" height="30" as="geometry" />
        </mxCell>
        <mxCell id="EgRt5MOaTffVcbJhi47y-19" value="" style="rounded=1;whiteSpace=wrap;html=1;fillColor=#f8cecc;strokeColor=#b85450;" parent="EgRt5MOaTffVcbJhi47y-30" vertex="1">
          <mxGeometry x="195" y="45" width="105" height="130" as="geometry" />
        </mxCell>
        <mxCell id="EgRt5MOaTffVcbJhi47y-20" value="easy-rsa" style="rounded=1;whiteSpace=wrap;html=1;" parent="EgRt5MOaTffVcbJhi47y-30" vertex="1">
          <mxGeometry x="205" y="75" width="85" height="40" as="geometry" />
        </mxCell>
        <mxCell id="EgRt5MOaTffVcbJhi47y-21" value="openvpn" style="rounded=1;whiteSpace=wrap;html=1;" parent="EgRt5MOaTffVcbJhi47y-30" vertex="1">
          <mxGeometry x="205" y="117.5" width="85" height="40" as="geometry" />
        </mxCell>
        <mxCell id="EgRt5MOaTffVcbJhi47y-22" value="VPN" style="text;html=1;align=center;verticalAlign=middle;whiteSpace=wrap;rounded=0;fontSize=16;" parent="EgRt5MOaTffVcbJhi47y-30" vertex="1">
          <mxGeometry x="225" y="45" width="60" height="30" as="geometry" />
        </mxCell>
        <mxCell id="EgRt5MOaTffVcbJhi47y-23" value="iptables&lt;div&gt;NAT&lt;/div&gt;" style="rounded=1;whiteSpace=wrap;html=1;fillColor=#f5f5f5;strokeColor=#666666;fontColor=#333333;" parent="EgRt5MOaTffVcbJhi47y-30" vertex="1">
          <mxGeometry x="115" y="185" width="120" height="60" as="geometry" />
        </mxCell>
        <mxCell id="EgRt5MOaTffVcbJhi47y-24" value="&lt;font style=&quot;font-size: 9px;&quot;&gt;192.168.0.131/25&lt;/font&gt;" style="text;html=1;align=center;verticalAlign=middle;whiteSpace=wrap;rounded=0;fontSize=16;" parent="EgRt5MOaTffVcbJhi47y-30" vertex="1">
          <mxGeometry x="47" y="200" width="60" height="30" as="geometry" />
        </mxCell>
        <mxCell id="EgRt5MOaTffVcbJhi47y-26" value="&lt;b&gt;Server vpn&lt;/b&gt;" style="text;html=1;align=center;verticalAlign=middle;whiteSpace=wrap;rounded=0;fontSize=16;" parent="EgRt5MOaTffVcbJhi47y-30" vertex="1">
          <mxGeometry x="105" y="5" width="140" height="30" as="geometry" />
        </mxCell>
        <mxCell id="EgRt5MOaTffVcbJhi47y-27" value="vpn.nanocorpinfra.ru" style="text;html=1;align=center;verticalAlign=middle;whiteSpace=wrap;rounded=0;fontSize=16;" parent="EgRt5MOaTffVcbJhi47y-30" vertex="1">
          <mxGeometry x="132.5" y="245" width="60" height="30" as="geometry" />
        </mxCell>
        <mxCell id="LJwqWdsHmtlXlG4Iy3JH-5" value="" style="shape=partialRectangle;whiteSpace=wrap;html=1;left=0;right=0;fillColor=#f8cecc;strokeColor=#b85450;movable=1;resizable=1;rotatable=1;deletable=1;editable=1;locked=0;connectable=1;" vertex="1" parent="EgRt5MOaTffVcbJhi47y-30">
          <mxGeometry x="235" y="200" width="170" height="30" as="geometry" />
        </mxCell>
        <mxCell id="EgRt5MOaTffVcbJhi47y-25" value="&lt;font style=&quot;font-size: 9px;&quot;&gt;84.201.128.115&lt;/font&gt;" style="text;html=1;align=center;verticalAlign=middle;whiteSpace=wrap;rounded=0;fontSize=16;" parent="EgRt5MOaTffVcbJhi47y-30" vertex="1">
          <mxGeometry x="240" y="200" width="60" height="30" as="geometry" />
        </mxCell>
        <mxCell id="LJwqWdsHmtlXlG4Iy3JH-6" value="" style="shape=partialRectangle;whiteSpace=wrap;html=1;left=0;right=0;fillColor=#f8cecc;strokeColor=#b85450;movable=1;resizable=1;rotatable=1;deletable=1;editable=1;locked=0;connectable=1;" vertex="1" parent="EgRt5MOaTffVcbJhi47y-30">
          <mxGeometry x="-130" y="200" width="170" height="30" as="geometry" />
        </mxCell>
        <mxCell id="EgRt5MOaTffVcbJhi47y-31" value="" style="group" parent="LJwqWdsHmtlXlG4Iy3JH-1" vertex="1" connectable="0">
          <mxGeometry x="35" y="40" width="340" height="275" as="geometry" />
        </mxCell>
        <mxCell id="EgRt5MOaTffVcbJhi47y-32" value="" style="rounded=1;whiteSpace=wrap;html=1;" parent="EgRt5MOaTffVcbJhi47y-31" vertex="1">
          <mxGeometry width="340" height="275" as="geometry" />
        </mxCell>
        <mxCell id="EgRt5MOaTffVcbJhi47y-33" value="" style="rounded=1;whiteSpace=wrap;html=1;fillColor=#ffe6cc;strokeColor=#d79b00;" parent="EgRt5MOaTffVcbJhi47y-31" vertex="1">
          <mxGeometry x="20" y="45" width="165" height="130" as="geometry" />
        </mxCell>
        <mxCell id="EgRt5MOaTffVcbJhi47y-34" value="node-exporter" style="rounded=1;whiteSpace=wrap;html=1;" parent="EgRt5MOaTffVcbJhi47y-31" vertex="1">
          <mxGeometry x="71" y="75" width="60" height="60" as="geometry" />
        </mxCell>
        <mxCell id="EgRt5MOaTffVcbJhi47y-36" value="monitoring" style="text;html=1;align=center;verticalAlign=middle;whiteSpace=wrap;rounded=0;fontSize=16;" parent="EgRt5MOaTffVcbJhi47y-31" vertex="1">
          <mxGeometry x="72.5" y="45" width="60" height="30" as="geometry" />
        </mxCell>
        <mxCell id="EgRt5MOaTffVcbJhi47y-37" value="" style="rounded=1;whiteSpace=wrap;html=1;fillColor=#f8cecc;strokeColor=#b85450;" parent="EgRt5MOaTffVcbJhi47y-31" vertex="1">
          <mxGeometry x="195" y="45" width="120" height="130" as="geometry" />
        </mxCell>
        <mxCell id="EgRt5MOaTffVcbJhi47y-38" value="easy-rsa" style="rounded=1;whiteSpace=wrap;html=1;" parent="EgRt5MOaTffVcbJhi47y-31" vertex="1">
          <mxGeometry x="205" y="75" width="100" height="40" as="geometry" />
        </mxCell>
        <mxCell id="EgRt5MOaTffVcbJhi47y-40" value="CA" style="text;html=1;align=center;verticalAlign=middle;whiteSpace=wrap;rounded=0;fontSize=16;" parent="EgRt5MOaTffVcbJhi47y-31" vertex="1">
          <mxGeometry x="225" y="45" width="60" height="30" as="geometry" />
        </mxCell>
        <mxCell id="EgRt5MOaTffVcbJhi47y-41" value="iptables" style="rounded=1;whiteSpace=wrap;html=1;fillColor=#f5f5f5;strokeColor=#666666;fontColor=#333333;" parent="EgRt5MOaTffVcbJhi47y-31" vertex="1">
          <mxGeometry x="115" y="185" width="120" height="60" as="geometry" />
        </mxCell>
        <mxCell id="EgRt5MOaTffVcbJhi47y-42" value="&lt;font style=&quot;font-size: 11px;&quot;&gt;192.168.0.3&lt;/font&gt;&lt;span style=&quot;font-size: 11px;&quot;&gt;/25&lt;/span&gt;" style="text;html=1;align=center;verticalAlign=middle;whiteSpace=wrap;rounded=0;fontSize=16;" parent="EgRt5MOaTffVcbJhi47y-31" vertex="1">
          <mxGeometry x="250" y="200" width="60" height="30" as="geometry" />
        </mxCell>
        <mxCell id="EgRt5MOaTffVcbJhi47y-44" value="&lt;b&gt;Server CA&lt;/b&gt;" style="text;html=1;align=center;verticalAlign=middle;whiteSpace=wrap;rounded=0;fontSize=16;" parent="EgRt5MOaTffVcbJhi47y-31" vertex="1">
          <mxGeometry x="105" y="5" width="140" height="30" as="geometry" />
        </mxCell>
        <mxCell id="EgRt5MOaTffVcbJhi47y-45" value="ca.nanocorpinfra.ru" style="text;html=1;align=center;verticalAlign=middle;whiteSpace=wrap;rounded=0;fontSize=16;" parent="EgRt5MOaTffVcbJhi47y-31" vertex="1">
          <mxGeometry x="132.5" y="245" width="60" height="30" as="geometry" />
        </mxCell>
        <mxCell id="EgRt5MOaTffVcbJhi47y-46" value="" style="group" parent="LJwqWdsHmtlXlG4Iy3JH-1" vertex="1" connectable="0">
          <mxGeometry x="30" y="350" width="340" height="275" as="geometry" />
        </mxCell>
        <mxCell id="EgRt5MOaTffVcbJhi47y-47" value="" style="rounded=1;whiteSpace=wrap;html=1;" parent="EgRt5MOaTffVcbJhi47y-46" vertex="1">
          <mxGeometry width="340" height="275" as="geometry" />
        </mxCell>
        <mxCell id="EgRt5MOaTffVcbJhi47y-48" value="" style="rounded=1;whiteSpace=wrap;html=1;fillColor=#ffe6cc;strokeColor=#d79b00;" parent="EgRt5MOaTffVcbJhi47y-46" vertex="1">
          <mxGeometry x="20" y="45" width="165" height="130" as="geometry" />
        </mxCell>
        <mxCell id="EgRt5MOaTffVcbJhi47y-49" value="node-exporter" style="rounded=1;whiteSpace=wrap;html=1;" parent="EgRt5MOaTffVcbJhi47y-46" vertex="1">
          <mxGeometry x="71" y="75" width="60" height="60" as="geometry" />
        </mxCell>
        <mxCell id="EgRt5MOaTffVcbJhi47y-51" value="monitoring" style="text;html=1;align=center;verticalAlign=middle;whiteSpace=wrap;rounded=0;fontSize=16;" parent="EgRt5MOaTffVcbJhi47y-46" vertex="1">
          <mxGeometry x="72.5" y="45" width="60" height="30" as="geometry" />
        </mxCell>
        <mxCell id="EgRt5MOaTffVcbJhi47y-52" value="" style="rounded=1;whiteSpace=wrap;html=1;fillColor=#f8cecc;strokeColor=#b85450;" parent="EgRt5MOaTffVcbJhi47y-46" vertex="1">
          <mxGeometry x="195" y="45" width="120" height="130" as="geometry" />
        </mxCell>
        <mxCell id="EgRt5MOaTffVcbJhi47y-53" value="Prometheus" style="rounded=1;whiteSpace=wrap;html=1;" parent="EgRt5MOaTffVcbJhi47y-46" vertex="1">
          <mxGeometry x="205" y="75" width="100" height="40" as="geometry" />
        </mxCell>
        <mxCell id="EgRt5MOaTffVcbJhi47y-54" value="Alertmanager" style="rounded=1;whiteSpace=wrap;html=1;" parent="EgRt5MOaTffVcbJhi47y-46" vertex="1">
          <mxGeometry x="205" y="117.5" width="100" height="40" as="geometry" />
        </mxCell>
        <mxCell id="EgRt5MOaTffVcbJhi47y-55" value="Prometheus" style="text;html=1;align=center;verticalAlign=middle;whiteSpace=wrap;rounded=0;fontSize=16;" parent="EgRt5MOaTffVcbJhi47y-46" vertex="1">
          <mxGeometry x="225" y="45" width="60" height="30" as="geometry" />
        </mxCell>
        <mxCell id="EgRt5MOaTffVcbJhi47y-56" value="iptables" style="rounded=1;whiteSpace=wrap;html=1;fillColor=#f5f5f5;strokeColor=#666666;fontColor=#333333;" parent="EgRt5MOaTffVcbJhi47y-46" vertex="1">
          <mxGeometry x="115" y="185" width="120" height="60" as="geometry" />
        </mxCell>
        <mxCell id="EgRt5MOaTffVcbJhi47y-57" value="&lt;font style=&quot;font-size: 11px;&quot;&gt;192.168.0.131/25&lt;/font&gt;" style="text;html=1;align=center;verticalAlign=middle;whiteSpace=wrap;rounded=0;fontSize=16;" parent="EgRt5MOaTffVcbJhi47y-46" vertex="1">
          <mxGeometry x="255" y="200" width="60" height="30" as="geometry" />
        </mxCell>
        <mxCell id="EgRt5MOaTffVcbJhi47y-59" value="&lt;b&gt;Monitoring&lt;/b&gt;" style="text;html=1;align=center;verticalAlign=middle;whiteSpace=wrap;rounded=0;fontSize=16;" parent="EgRt5MOaTffVcbJhi47y-46" vertex="1">
          <mxGeometry x="105" y="5" width="140" height="30" as="geometry" />
        </mxCell>
        <mxCell id="EgRt5MOaTffVcbJhi47y-60" value="monitor.nanocorpinfra.ru" style="text;html=1;align=center;verticalAlign=middle;whiteSpace=wrap;rounded=0;fontSize=16;" parent="EgRt5MOaTffVcbJhi47y-46" vertex="1">
          <mxGeometry x="132.5" y="245" width="60" height="30" as="geometry" />
        </mxCell>
        <mxCell id="EgRt5MOaTffVcbJhi47y-61" value="" style="group" parent="LJwqWdsHmtlXlG4Iy3JH-1" vertex="1" connectable="0">
          <mxGeometry x="30" y="673" width="340" height="275" as="geometry" />
        </mxCell>
        <mxCell id="EgRt5MOaTffVcbJhi47y-62" value="" style="rounded=1;whiteSpace=wrap;html=1;" parent="EgRt5MOaTffVcbJhi47y-61" vertex="1">
          <mxGeometry width="340" height="275" as="geometry" />
        </mxCell>
        <mxCell id="EgRt5MOaTffVcbJhi47y-63" value="" style="rounded=1;whiteSpace=wrap;html=1;fillColor=#ffe6cc;strokeColor=#d79b00;" parent="EgRt5MOaTffVcbJhi47y-61" vertex="1">
          <mxGeometry x="20" y="45" width="165" height="130" as="geometry" />
        </mxCell>
        <mxCell id="EgRt5MOaTffVcbJhi47y-64" value="node-exporter" style="rounded=1;whiteSpace=wrap;html=1;" parent="EgRt5MOaTffVcbJhi47y-61" vertex="1">
          <mxGeometry x="35" y="75" width="60" height="60" as="geometry" />
        </mxCell>
        <mxCell id="EgRt5MOaTffVcbJhi47y-65" value="nginx-exporter" style="rounded=1;whiteSpace=wrap;html=1;" parent="EgRt5MOaTffVcbJhi47y-61" vertex="1">
          <mxGeometry x="105" y="75" width="60" height="60" as="geometry" />
        </mxCell>
        <mxCell id="EgRt5MOaTffVcbJhi47y-66" value="monitoring" style="text;html=1;align=center;verticalAlign=middle;whiteSpace=wrap;rounded=0;fontSize=16;" parent="EgRt5MOaTffVcbJhi47y-61" vertex="1">
          <mxGeometry x="72.5" y="45" width="60" height="30" as="geometry" />
        </mxCell>
        <mxCell id="EgRt5MOaTffVcbJhi47y-67" value="" style="rounded=1;whiteSpace=wrap;html=1;fillColor=#f8cecc;strokeColor=#b85450;" parent="EgRt5MOaTffVcbJhi47y-61" vertex="1">
          <mxGeometry x="195" y="45" width="120" height="130" as="geometry" />
        </mxCell>
        <mxCell id="EgRt5MOaTffVcbJhi47y-68" value="aptly" style="rounded=1;whiteSpace=wrap;html=1;" parent="EgRt5MOaTffVcbJhi47y-61" vertex="1">
          <mxGeometry x="205" y="75" width="100" height="40" as="geometry" />
        </mxCell>
        <mxCell id="EgRt5MOaTffVcbJhi47y-69" value="nginx" style="rounded=1;whiteSpace=wrap;html=1;" parent="EgRt5MOaTffVcbJhi47y-61" vertex="1">
          <mxGeometry x="205" y="117.5" width="100" height="40" as="geometry" />
        </mxCell>
        <mxCell id="EgRt5MOaTffVcbJhi47y-70" value="Repo" style="text;html=1;align=center;verticalAlign=middle;whiteSpace=wrap;rounded=0;fontSize=16;" parent="EgRt5MOaTffVcbJhi47y-61" vertex="1">
          <mxGeometry x="225" y="45" width="60" height="30" as="geometry" />
        </mxCell>
        <mxCell id="EgRt5MOaTffVcbJhi47y-71" value="iptables" style="rounded=1;whiteSpace=wrap;html=1;fillColor=#f5f5f5;strokeColor=#666666;fontColor=#333333;" parent="EgRt5MOaTffVcbJhi47y-61" vertex="1">
          <mxGeometry x="115" y="185" width="120" height="60" as="geometry" />
        </mxCell>
        <mxCell id="EgRt5MOaTffVcbJhi47y-72" value="&lt;font style=&quot;font-size: 11px;&quot;&gt;192.168.0.6/25&lt;/font&gt;" style="text;html=1;align=center;verticalAlign=middle;whiteSpace=wrap;rounded=0;fontSize=16;" parent="EgRt5MOaTffVcbJhi47y-61" vertex="1">
          <mxGeometry x="255" y="200" width="60" height="30" as="geometry" />
        </mxCell>
        <mxCell id="EgRt5MOaTffVcbJhi47y-74" value="&lt;b&gt;Server repo&lt;/b&gt;" style="text;html=1;align=center;verticalAlign=middle;whiteSpace=wrap;rounded=0;fontSize=16;" parent="EgRt5MOaTffVcbJhi47y-61" vertex="1">
          <mxGeometry x="105" y="5" width="140" height="30" as="geometry" />
        </mxCell>
        <mxCell id="EgRt5MOaTffVcbJhi47y-75" value="repo.nanocorpinfra.ru" style="text;html=1;align=center;verticalAlign=middle;whiteSpace=wrap;rounded=0;fontSize=16;" parent="EgRt5MOaTffVcbJhi47y-61" vertex="1">
          <mxGeometry x="132.5" y="245" width="60" height="30" as="geometry" />
        </mxCell>
        <mxCell id="EgRt5MOaTffVcbJhi47y-80" value="" style="line;strokeWidth=2;html=1;" parent="LJwqWdsHmtlXlG4Iy3JH-1" vertex="1">
          <mxGeometry x="370" y="560" width="123" height="10" as="geometry" />
        </mxCell>
        <mxCell id="EgRt5MOaTffVcbJhi47y-82" value="" style="line;strokeWidth=2;direction=south;html=1;" parent="LJwqWdsHmtlXlG4Iy3JH-1" vertex="1">
          <mxGeometry x="434" y="253" width="10" height="637" as="geometry" />
        </mxCell>
        <mxCell id="EgRt5MOaTffVcbJhi47y-83" value="" style="line;strokeWidth=2;html=1;" parent="LJwqWdsHmtlXlG4Iy3JH-1" vertex="1">
          <mxGeometry x="375" y="250" width="65" height="10" as="geometry" />
        </mxCell>
        <mxCell id="EgRt5MOaTffVcbJhi47y-84" value="" style="line;strokeWidth=2;html=1;" parent="LJwqWdsHmtlXlG4Iy3JH-1" vertex="1">
          <mxGeometry x="370" y="883" width="70" height="10" as="geometry" />
        </mxCell>
        <mxCell id="EgRt5MOaTffVcbJhi47y-114" value="" style="group" parent="LJwqWdsHmtlXlG4Iy3JH-1" vertex="1" connectable="0">
          <mxGeometry x="904" y="358" width="460" height="280" as="geometry" />
        </mxCell>
        <mxCell id="EgRt5MOaTffVcbJhi47y-85" value="&lt;font color=&quot;#0f0f0f&quot; style=&quot;font-size: 30px;&quot;&gt;&lt;b&gt;INTERNET&lt;/b&gt;&lt;/font&gt;" style="html=1;outlineConnect=0;fillColor=#f5f5f5;strokeColor=#666666;gradientDirection=north;strokeWidth=2;shape=mxgraph.networks.cloud;fontColor=#333333;" parent="EgRt5MOaTffVcbJhi47y-114" vertex="1">
          <mxGeometry width="460" height="280" as="geometry" />
        </mxCell>
        <mxCell id="EgRt5MOaTffVcbJhi47y-112" value="&lt;font style=&quot;font-size: 21px;&quot;&gt;vpn tunnel&lt;/font&gt;" style="shape=partialRectangle;whiteSpace=wrap;html=1;left=0;right=0;fillColor=#f8cecc;strokeColor=#b85450;movable=1;resizable=1;rotatable=1;deletable=1;editable=1;locked=0;connectable=1;" parent="EgRt5MOaTffVcbJhi47y-114" vertex="1">
          <mxGeometry x="7" y="193" width="443" height="30" as="geometry" />
        </mxCell>
        <mxCell id="EgRt5MOaTffVcbJhi47y-115" value="" style="group" parent="LJwqWdsHmtlXlG4Iy3JH-1" vertex="1" connectable="0">
          <mxGeometry x="1359" y="161" width="170" height="703" as="geometry" />
        </mxCell>
        <mxCell id="EgRt5MOaTffVcbJhi47y-86" value="" style="fontColor=#0066CC;verticalAlign=top;verticalLabelPosition=bottom;labelPosition=center;align=center;html=1;outlineConnect=0;fillColor=#CCCCCC;strokeColor=#6881B3;gradientColor=none;gradientDirection=north;strokeWidth=2;shape=mxgraph.networks.monitor;" parent="EgRt5MOaTffVcbJhi47y-115" vertex="1">
          <mxGeometry x="60" width="110" height="110" as="geometry" />
        </mxCell>
        <mxCell id="EgRt5MOaTffVcbJhi47y-87" value="" style="fontColor=#0066CC;verticalAlign=top;verticalLabelPosition=bottom;labelPosition=center;align=center;html=1;outlineConnect=0;fillColor=#CCCCCC;strokeColor=#6881B3;gradientColor=none;gradientDirection=north;strokeWidth=2;shape=mxgraph.networks.monitor;" parent="EgRt5MOaTffVcbJhi47y-115" vertex="1">
          <mxGeometry x="60" y="150" width="110" height="110" as="geometry" />
        </mxCell>
        <mxCell id="EgRt5MOaTffVcbJhi47y-88" value="" style="fontColor=#0066CC;verticalAlign=top;verticalLabelPosition=bottom;labelPosition=center;align=center;html=1;outlineConnect=0;fillColor=#CCCCCC;strokeColor=#6881B3;gradientColor=none;gradientDirection=north;strokeWidth=2;shape=mxgraph.networks.monitor;" parent="EgRt5MOaTffVcbJhi47y-115" vertex="1">
          <mxGeometry x="60" y="300" width="110" height="110" as="geometry" />
        </mxCell>
        <mxCell id="EgRt5MOaTffVcbJhi47y-89" value="" style="fontColor=#0066CC;verticalAlign=top;verticalLabelPosition=bottom;labelPosition=center;align=center;html=1;outlineConnect=0;fillColor=#CCCCCC;strokeColor=#6881B3;gradientColor=none;gradientDirection=north;strokeWidth=2;shape=mxgraph.networks.monitor;" parent="EgRt5MOaTffVcbJhi47y-115" vertex="1">
          <mxGeometry x="60" y="450" width="110" height="110" as="geometry" />
        </mxCell>
        <mxCell id="EgRt5MOaTffVcbJhi47y-90" value="" style="fontColor=#0066CC;verticalAlign=top;verticalLabelPosition=bottom;labelPosition=center;align=center;html=1;outlineConnect=0;fillColor=#CCCCCC;strokeColor=#6881B3;gradientColor=none;gradientDirection=north;strokeWidth=2;shape=mxgraph.networks.monitor;" parent="EgRt5MOaTffVcbJhi47y-115" vertex="1">
          <mxGeometry x="60" y="593" width="110" height="110" as="geometry" />
        </mxCell>
        <mxCell id="EgRt5MOaTffVcbJhi47y-98" value="" style="line;strokeWidth=2;html=1;" parent="EgRt5MOaTffVcbJhi47y-115" vertex="1">
          <mxGeometry y="400" width="90" height="10" as="geometry" />
        </mxCell>
        <mxCell id="EgRt5MOaTffVcbJhi47y-99" value="" style="line;strokeWidth=2;direction=south;html=1;" parent="EgRt5MOaTffVcbJhi47y-115" vertex="1">
          <mxGeometry x="17" y="110" width="10" height="589" as="geometry" />
        </mxCell>
        <mxCell id="EgRt5MOaTffVcbJhi47y-102" value="" style="line;strokeWidth=2;html=1;" parent="EgRt5MOaTffVcbJhi47y-115" vertex="1">
          <mxGeometry x="21" y="107" width="70" height="10" as="geometry" />
        </mxCell>
        <mxCell id="EgRt5MOaTffVcbJhi47y-103" value="" style="line;strokeWidth=2;html=1;" parent="EgRt5MOaTffVcbJhi47y-115" vertex="1">
          <mxGeometry x="21" y="250" width="70" height="10" as="geometry" />
        </mxCell>
        <mxCell id="EgRt5MOaTffVcbJhi47y-104" value="" style="line;strokeWidth=2;html=1;" parent="EgRt5MOaTffVcbJhi47y-115" vertex="1">
          <mxGeometry x="21" y="550" width="70" height="10" as="geometry" />
        </mxCell>
        <mxCell id="EgRt5MOaTffVcbJhi47y-105" value="" style="line;strokeWidth=2;html=1;" parent="EgRt5MOaTffVcbJhi47y-115" vertex="1">
          <mxGeometry x="21" y="693" width="70" height="10" as="geometry" />
        </mxCell>
      </root>
    </mxGraphModel>
  </diagram>
</mxfile>
